<svg width="30" height="30" viewBox="0 0 50 30" fill="none" xmlns="http://www.w3.org/2000/svg"><g clip-path="url(#a)"><path fill-rule="evenodd" clip-rule="evenodd" d="M31.796.005c-4.69-.147-9.776 2.747-13.45 7.216h-.006c-.236.272-.494.61-.746.96h2.884a23 23 0 0 1 2.695-2.92c2.714-2.466 5.788-4.031 8.659-4.403a.425.425 0 0 0 .371-.445.426.426 0 0 0-.407-.408m-18.419 18.41h.003c-.298 2.62.048 5.067 1.05 7.06 1.113 2.23 2.953 3.743 5.305 4.382q.055.015.112.015a.428.428 0 0 0 .204-.804c-1.975-1.076-3.332-2.993-3.925-5.543-.367-1.596-.4-3.383-.125-5.243q.08-.471.186-.97H13.53c-.127.695-.153 1.1-.153 1.1zm3.255-2.849h-2.695c.873-3.184 2.482-5.635 2.482-5.635h2.82c-1.947 3.093-2.607 5.635-2.607 5.635M20.134 2.17a.516.516 0 0 0-.649-.273c-2.448.932-4.693 2.515-6.546 4.536h-2.512a.875.875 0 1 0 0 1.75h1.087a19.6 19.6 0 0 0-2.876 5.794c-.954 3.143-.992 6.207-.209 8.803l.01.03H5.213a.875.875 0 1 0 0 1.752H9.13q.012.023.016.023c.74 1.478 1.794 2.736 3.14 3.672q.138.092.296.092a.52.52 0 0 0 .389-.178.517.517 0 0 0-.015-.687c-.978-1.039-1.726-2.332-2.217-3.841-.88-2.718-.87-5.866.04-9.104a20.3 20.3 0 0 1 3.53-6.96c1.599-2.04 3.533-3.681 5.597-4.737a.515.515 0 0 0 .232-.667zm24.632 2.11c-1.061-1.1-2.458-1.746-4.153-1.92l-.003.006a9 9 0 0 0-.929-.049c-3.12 0-6.706 1.627-9.72 4.121h6.94c2.192 0 3.765.127 4.7.341 1.335.29 2.282.827 2.85 1.611.567.784.786 1.609.4 2.675q-.374 1.043-1.263 1.891-.886.85-2.464 1.593 1.906.78 2.492 1.952.589 1.173.013 2.772-.558 1.54-2.064 2.8c-1 .845-2.126 1.47-3.378 1.89-1.25.416-2.576.594-4.515.591h-8.43a.875.875 0 1 1 0-1.75h2.075l.015-.044 5.281-14.581-4.487.002a22.6 22.6 0 0 0-3.973 5.612l-.01.023h2.731a.875.875 0 1 1 0 1.751h-3.492l-.01.023c-.565 1.494-.898 2.965-1 4.352q-.047.585-.036 1.113H19.11c0-1.01.114-1.693.114-1.693.222-1.748.764-3.601 1.63-5.485C24.351 6.246 31.938.494 38.51.494q.544 0 1.072.054c2.458.254 4.426 1.376 5.703 3.247a.354.354 0 0 1-.257.593h-.005a.35.35 0 0 1-.257-.11m-6.943 5.38h-2.128l-1.394 3.846h1.95c1.111 0 2.007-.178 2.677-.535q1-.532 1.339-1.45.304-.856-.28-1.36c-.395-.333-1.113-.5-2.164-.5m.873 7.625q-.916-.68-3.616-.682h-1.897l-1.692 4.67h2.095c1.896 0 3.24-.175 4.036-.542q1.19-.542 1.565-1.585c.283-.787.123-1.408-.49-1.86m-19.473 5.52v.003zm0 .003h3.284c1.117 5.528 5.891 5.74 7.925 5.528 2.036-.211 3.843-1.028 4.144-1.183.3-.155.46.046.46.046s.112.094.102.277c-.01.18-.178.277-.178.277-5.001 2.851-8.6 2.18-8.6 2.18-6.619-.766-7.126-6.98-7.136-7.125M.877 13.817H6.05a.876.876 0 1 1 0 1.752H.876a.876.876 0 0 1 0-1.751" fill="#315FEE"/></g><defs><clipPath id="a"><path fill="#fff" d="M0 0h60v60H0z"/></clipPath></defs></svg>